<svg width="100%" height="100%" viewBox="0 0 256 256" version="1.1" xmlns="http://www.w3.org/2000/svg" xmlns:xlink="http://www.w3.org/1999/xlink" xml:space="preserve" xmlns:serif="http://www.serif.com/" style="fill-rule:evenodd;clip-rule:evenodd;stroke-linejoin:round;stroke-miterlimit:1.5;"><circle cx="128" cy="128" r="126.826" style="fill:#1a1a1a;"/><path d="M128,1.174c69.997,0 126.826,56.829 126.826,126.826c-0,69.997 -56.829,126.826 -126.826,126.826c-69.997,-0 -126.826,-56.829 -126.826,-126.826c0,-69.997 56.829,-126.826 126.826,-126.826Zm-0,5.154c-67.152,0 -121.672,54.52 -121.672,121.672c0,67.152 54.52,121.672 121.672,121.672c67.152,-0 121.672,-54.52 121.672,-121.672c-0,-67.152 -54.52,-121.672 -121.672,-121.672Z"/><path d="M128,1.174c69.997,0 126.826,56.829 126.826,126.826c-0,69.997 -56.829,126.826 -126.826,126.826c-69.997,-0 -126.826,-56.829 -126.826,-126.826c0,-69.997 56.829,-126.826 126.826,-126.826Zm-0,7.43c-65.896,0 -119.396,53.5 -119.396,119.396c0,65.896 53.5,119.396 119.396,119.396c65.896,-0 119.396,-53.5 119.396,-119.396c-0,-65.896 -53.5,-119.396 -119.396,-119.396Z" style="fill:#fff;"/><g><clipPath id="_clip1"><path d="M101.63,190.504c7.105,16.317 28.807,47.251 28.807,47.251l55.776,-7.23c25.934,-41.173 29.336,-74.773 -30.599,-69.526c-20.066,12.934 -12.12,10.333 -27.614,0c1.163,-27.912 -38.798,0.965 -26.37,29.505Z"/></clipPath><g clip-path="url(#_clip1)"><path d="M200.135,183.437l-21.714,40.099l-72.017,-38.998l21.714,-40.099l72.017,38.998Z" style="fill:#fff;"/><path d="M200.135,183.437l-21.714,40.099l-72.017,-38.998l21.714,-40.099l72.017,38.998Zm-4.931,1.467c0,-0 -65.619,-35.534 -65.619,-35.534l-18.25,33.701c0,0 65.62,35.534 65.62,35.534l18.249,-33.701Z" style="fill:#0d0d0d;"/><path d="M130.622,148.377l21.123,38.427l43.739,-3.312" style="fill:none;stroke:#1a1a1a;stroke-width:6.39px;"/><path d="M130.622,148.377l21.123,38.427l43.739,-3.312" style="fill:#fff;"/></g></g><g><path d="M41.755,100.17c7.925,-18.258 19.501,-33.322 35.794,-44.257c11.567,12.793 19.746,27.28 22.944,44.257c18.083,-2.94 35.753,-2.987 52.942,0.336c13.936,-18.763 23.015,-22.284 38.816,-35.546c11.982,10.702 21.995,27.559 21.994,41.422" style="fill:none;stroke:#a6a6a6;stroke-width:8.69px;stroke-linecap:round;"/><path d="M39.343,100.17c7.925,-18.258 19.501,-33.322 35.794,-44.257c11.567,12.793 19.746,27.28 22.944,44.257c18.083,-2.94 35.754,-2.987 52.942,0.336c13.936,-18.763 23.015,-22.284 38.816,-35.546c11.982,10.702 21.995,27.559 21.994,41.422" style="fill:none;stroke:#fff;stroke-width:8.69px;stroke-linecap:round;"/><path d="M58.804,128c8.517,-14.377 19.604,-17.376 19.604,-17.376c0,0 7.174,2.999 9.765,17.376" style="fill:none;stroke:#fff;stroke-width:4.7px;stroke-linecap:round;"/><path d="M159.826,132.475c4.492,-18.563 14.545,-18.32 14.545,-18.32c-0,-0 9.55,1.384 14.824,18.32" style="fill:none;stroke:#fff;stroke-width:4.7px;stroke-linecap:round;"/><path d="M83.448,155.744c3.588,8.717 10.249,19.232 18.404,15.718c11.371,-4.9 14.19,-17.434 18.972,-18.382c5.112,-1.013 4.219,9.982 14.002,18.382c8.53,7.323 20.584,-4.935 25,-15.608" style="fill:none;stroke:#737373;stroke-width:6.97px;stroke-linecap:round;"/><path d="M83.448,153.395c3.588,8.717 10.249,19.232 18.404,15.718c11.371,-4.9 14.19,-17.433 18.972,-18.381c5.112,-1.013 4.219,9.982 14.002,18.381c8.53,7.324 20.584,-4.934 25,-15.608" style="fill:none;stroke:#fff;stroke-width:6.97px;stroke-linecap:round;"/></g><g><path d="M58.883,151.338c-9.065,-3.153 -14.197,-5.814 -16.104,-8.072" style="fill:none;stroke:#fff;stroke-width:1.25px;stroke-linecap:round;"/><path d="M58.883,153.686c-8.557,0.375 -14.035,-1.828 -23.486,-2.348" style="fill:none;stroke:#fff;stroke-width:1.25px;stroke-linecap:round;"/><path d="M58.883,156.687c-8.342,0.404 -15.368,2.454 -20.131,7.332" style="fill:none;stroke:#fff;stroke-width:1.25px;stroke-linecap:round;"/></g><g><path d="M191.413,151.424c9.065,-3.153 14.197,-5.814 16.105,-8.072" style="fill:none;stroke:#fff;stroke-width:1.25px;stroke-linecap:round;"/><path d="M191.413,153.773c8.557,0.375 14.035,-1.829 23.486,-2.349" style="fill:none;stroke:#fff;stroke-width:1.25px;stroke-linecap:round;"/><path d="M191.413,156.773c8.342,0.405 15.368,2.454 20.131,7.333" style="fill:none;stroke:#fff;stroke-width:1.25px;stroke-linecap:round;"/></g></svg>